<svg xmlns="http://www.w3.org/2000/svg" viewBox="0 0 151.28 74.8"><path d="M30.72-52.48c2.24-1.76,2.4-1.92,2.4-2.64s-.24-1.12-3.52-3.92c-3.2-2.72-3.52-2.8-4.4-2.8-.64,0-.96.24-4.16,4.24h-5.2c-.88-.88-3.36-2-10.24-3.92.32,4.96.32,11.04.32,24.8,0,18.72-.64,31.04-.64,33.2C5.28-.72,5.92-.4,8.8-.4c3.76,0,5.68-1.12,5.68-3.6v-8.48h7.2v3.6c0,2.72.56,3.12,3.52,3.12,4.16,0,6.08-1.12,6.08-3.6,0-2-.56-12.32-.56-33.6ZM14.48-14.08V-34.32h7.2v20.24ZM21.68-56v20.08h-7.2v-18.8A5.5,5.5,0,0,0,16.16-56ZM48.96-11.68c0-5.76-4.96-10-14.08-10.56-.48,0-.8.48-.4.8,2.64,2.08,3.92,4.88,4.08,11.04.08,3.04,2.08,4.72,4.4,4.72A5.891,5.891,0,0,0,48.96-11.68ZM65.2-32.56c2.32-.72,3.04-1.52,3.04-2.48,0-1.12-1.6-1.92-12.56-2.72.24,3.36.32,7.92.32,11.44H42.32a89.849,89.849,0,0,1-9.68-.56l.72,2.72c4.64-.4,6.56-.56,8.96-.56H56v17.6C56-4,55.12-3.2,52.64-2.8a66.149,66.149,0,0,1-9.36.48c-.48,0-.48.72,0,.8,5.84,1.12,7.76,3.92,8.4,6.24.4,1.44,1.04,2.16,2.4,2.16a17.416,17.416,0,0,0,6.32-1.2c4.08-1.92,5.28-4.8,5.28-8.56,0-2.88-.48-10.56-.48-21.68v-.16H76.96c.64,0,.88-.32.88-.8,0-.72-.16-1.04-2.8-3.76-3.52-3.68-3.68-3.68-4.56-3.68-.72,0-.96.16-5.28,6.64Zm-9.6-8.08V-52.72H72.48c.56,0,.88-.24.88-.96,0-.56-.32-.88-3.04-3.6-3.28-3.36-3.44-3.44-4.24-3.44-.72,0-.88.16-5.6,6.4H55.6v-7.92c2.8-1.36,3.2-1.84,3.2-2.88,0-.88-2-2.24-13.2-2.8.32,4.48.32,6.8.32,11.36v2.24H43.44a85.976,85.976,0,0,1-9.2-.56l.8,2.72a77.835,77.835,0,0,1,8.4-.56h2.48v12.08H40.88a89.85,89.85,0,0,1-9.68-.56l.72,2.72c4.64-.4,6.56-.56,8.96-.56H77.76c.64,0,.88-.32.88-.8,0-.72-.32-1.04-2.96-3.68-3.84-3.76-4.08-3.84-4.8-3.84-.8,0-.96.16-5.76,6.72ZM126-51.28a.778.778,0,0,0,.88-.8c0-.64-.24-.96-3.04-3.76-3.52-3.52-3.92-3.6-4.72-3.6-.72,0-.88.24-5.92,6.56h-4.4v-9.28c2.72-1.04,3.12-1.68,3.12-2.56,0-1.36-1.12-2.08-13.12-2.96a45.679,45.679,0,0,1,.56,7.28v7.52H92.64a85.976,85.976,0,0,1-9.2-.56l.8,2.72a77.836,77.836,0,0,1,8.4-.56Zm-18.24,3.52c3.36,1.84,5.76,5.28,7.44,11.52.96,3.44,2.24,4.64,4.48,4.64,2.48,0,5.04-1.84,5.04-5.52,0-5.44-5.28-10.72-16.56-11.44C107.68-48.56,107.36-48,107.76-47.76ZM83.04-26.16c6.56-2.64,13.92-8.4,18.8-14.32,3.2-.24,3.92-.96,3.92-2.16,0-1.12-.56-1.92-10.96-6.4-.4,1.6-.88,3.2-1.12,3.84-2.96,8.16-7.44,14.96-11.2,18.32C82.16-26.56,82.56-26,83.04-26.16Zm26,18.88c1.12,3.36,2.24,4.64,4.56,4.64,2.72,0,5.04-2.24,5.04-5.84,0-3.92-2.4-8.24-6.88-12.16a55.457,55.457,0,0,0,3.44-6c2.72-.32,3.52-.96,3.52-2.08,0-1.36-1.92-2.32-11.28-6.24a34.965,34.965,0,0,1-1.6,5.44c-.48,1.36-1.04,2.64-1.6,3.92a53.123,53.123,0,0,0-11.6-4.32c-.48-.08-.8.56-.4.8a31.054,31.054,0,0,1,9.6,8.56c-5.2,9.84-12.4,18-20.24,23.12-.4.24,0,.88.48.72A60.382,60.382,0,0,0,106.4-13.44,46.036,46.036,0,0,1,109.04-7.28Zm31.2-39.92c.16-4.24.24-8.96.24-14.48,2.72-1.36,3.04-2.16,3.04-2.88,0-1.2-1.28-2.32-13.04-3.36.4,2.08.48,4.32.48,14.08,0,2.32,0,4.56-.08,6.64a72.364,72.364,0,0,1-8.16-.64l.8,2.8a61.376,61.376,0,0,1,7.36-.56c-.4,15.68-2.08,23.84-4.8,30.96C122.48-5.2,115.36,2.4,108.32,5.84c-.4.24-.08.96.4.8,9.44-2.8,19.76-10.64,24.24-18.72,4.16-7.52,6.4-14.24,7.2-33.52h4.56c-.16,15.92-.4,27.04-1.76,36-.72,4.88-2.4,5.84-5.2,5.92a72.094,72.094,0,0,1-9.04-.16c-.48,0-.48.64,0,.8,5.68,2.4,7.44,4.16,8.32,7.68.4,1.52.88,1.92,2.48,1.92,6.72,0,11.76-3.68,13.04-11.68.96-5.92,1.36-16.16,1.6-37.2,2.16-1.76,2.4-2.08,2.4-2.72,0-.72-.16-1.04-2.96-3.52C149.68-52,149.28-52,148.64-52c-.72,0-1.12.24-4.88,4.8Z" transform="translate(-5.28 67.92)" fill="#d8c393"/></svg>
